# xmcd
#
# Track frame offsets:
#	150
#	17187
#	25210
#	34936
#	46214
#	53436
#	64706
#	76581
#	87723
#	96822
#	109688
#	121718
#
# Disc length: 1768
#
# Revision: 1
# Processed by: cddbd v1.5.1PL0 Copyright (c) Steve Scherf et al.
# Submitted via: CDex 1.40Release
# Normalized: r0:TRMNUM
#
DISCID=8a06e60c
DTITLE=Shot Jackson, David Muskgrave and Paul Buskirk - Dobro, Shobro and Steel
DYEAR=1974
DGENRE=Country
TTITLE0=I Love You So Much
TTITLE1=Hoedown Medley
TTITLE2=Don't Be Angry
TTITLE3=Mercy, Mercy
TTITLE4=Pretty Baby
TTITLE5=I Love You Because
TTITLE6=Sweet Georgia Brown
TTITLE7=Last Letter
TTITLE8=Slippin' Around
TTITLE9=Hawaiian Medley
TTITLE10=Blue Bonnet Rag
TTITLE11=Fireball Mail
EXTD=YEAR: 1974 ID3G: 2
EXTT0=
EXTT1=
EXTT2=
EXTT3=
EXTT4=
EXTT5=
EXTT6=
EXTT7=
EXTT8=
EXTT9=
EXTT10=
EXTT11=
PLAYORDER=
